<svg width="168" height="62" viewBox="0 0 168 62" fill="none" xmlns="http://www.w3.org/2000/svg">
<path d="M162.245 45.751C160.425 55.671 153.255 62.921 143.665 60.671C141.695 60.211 140.135 58.821 139.525 57.351C136.535 50.181 146.945 45.241 156.095 44.391C156.555 42.531 157.205 40.761 157.255 38.611C154.845 41.981 151.505 43.781 147.885 43.131C145.685 42.731 144.485 41.181 143.915 38.941C141.365 42.281 137.975 44.141 134.295 43.531C128.925 42.641 130.355 35.411 131.585 29.521L136.765 4.86096C137.235 2.63096 142.865 2.86096 142.845 4.89096L136.855 36.171C136.625 37.361 136.625 39.841 138.245 39.701C141.175 39.441 143.555 36.521 144.125 33.831L147.245 19.051C147.525 17.711 149.555 17.681 150.535 17.711C151.655 17.751 153.505 18.581 153.225 20.171L150.265 36.721C150.085 37.721 150.405 38.591 151.025 39.181C152.495 40.621 156.985 37.621 158.025 32.741L160.825 19.551C161.145 18.061 162.905 17.771 163.935 17.641C164.835 17.531 167.065 18.241 167.045 19.651L162.245 45.741V45.751ZM155.505 46.851L150.445 48.431C147.925 49.221 145.875 51.181 145.395 53.841C145.105 55.451 145.835 56.771 146.865 57.181C150.845 58.751 154.645 52.481 155.505 46.861V46.851Z" fill="#80DEEA"/>
<path d="M42.8655 13.131C42.8055 13.481 43.1755 13.7309 43.3055 14.0509C40.7355 14.2409 38.0455 14.4209 35.2455 15.8609C38.3755 18.8409 47.1655 18.491 52.6855 18.231C52.6255 18.631 52.6455 19.091 52.6255 19.511C47.2155 20.241 41.7055 19.9009 35.9155 18.4909C34.7055 28.6109 37.8655 40.0309 47.4755 41.3909C52.1855 42.0609 56.3455 39.911 59.1055 36.221C59.7355 36.331 59.5555 36.741 60.0155 37.481C60.4655 36.631 61.0955 36.191 61.8655 36.281C59.4955 40.841 55.0955 43.5109 50.5655 43.9609C45.5155 44.4609 40.6555 42.6309 37.7455 38.4209C33.7755 32.6609 32.9055 26.0309 33.3855 18.9909C32.0855 19.4809 29.4755 18.4309 29.7455 17.4209C31.3955 14.7509 32.6455 10.9509 29.8655 8.61094C26.1955 5.53094 20.1055 6.04094 16.5555 8.83094C14.8855 10.1409 14.0755 11.961 14.0655 13.821C14.0655 15.491 14.9655 17.6209 16.6455 18.6409L28.6055 25.9309C32.3355 28.2009 34.4055 31.721 34.5055 35.981C34.5955 39.741 32.5955 43.571 28.8955 45.781C17.9955 52.291 0.595483 49.211 0.015483 39.791C-0.164517 36.871 1.23548 34.261 3.66548 32.531C8.81548 28.871 15.0655 30.861 13.2455 32.541C12.3855 33.341 7.37547 33.191 7.00547 38.161C6.82547 40.591 8.07548 42.951 10.7355 43.841C15.2055 45.331 20.4155 44.861 24.3055 42.201C26.5055 40.701 27.5855 38.3209 27.4255 35.9609C27.2855 33.8409 26.0455 31.7709 23.9755 30.5209L11.9955 23.3009C8.77546 21.3609 7.05548 18.041 7.23548 14.381C7.70548 4.71096 21.7255 0.400944 32.2855 4.49094C36.1155 5.98094 38.3955 9.45094 38.1555 13.6409C40.0455 13.7309 41.3755 13.2109 42.8655 13.1109V13.131Z" fill="#80DEEA"/>
<path d="M120.595 24.231C123.445 19.841 127.535 15.701 130.705 18.091C131.595 18.761 131.555 19.901 131.535 21.341C131.515 22.901 129.965 24.821 128.485 23.901C126.805 22.861 125.335 22.5709 123.825 24.0809C118.395 29.5009 119.135 36.311 117.295 42.911C116.345 44.141 112.875 43.8809 112.055 42.6109C111.315 41.4609 112.085 39.831 111.635 38.281C108.405 41.731 104.065 44.041 99.4554 43.571C95.4454 43.161 92.1554 40.8009 91.0754 36.8909C89.1154 29.7709 92.3654 22.071 99.0354 18.701C103.495 16.441 109.625 17.021 111.085 21.101C111.825 23.171 111.465 25.4909 109.965 27.3909C106.985 31.1509 102.215 32.711 97.2954 32.731C96.9454 36.601 99.6454 39.661 103.485 39.411C107.325 39.161 111.355 36.581 112.675 32.781L115.245 19.041C115.615 17.051 119.775 17.2709 120.605 18.9209C121.525 20.7609 120.545 22.241 120.605 24.241L120.595 24.231ZM105.755 23.9209C106.095 22.4309 105.275 21.261 104.695 20.911C102.085 19.341 97.8054 24.7709 97.2854 30.4209C101.065 30.0009 104.865 27.8309 105.765 23.9209H105.755Z" fill="#80DEEA"/>
<path d="M88.6954 21.7509C90.2054 27.4409 88.9254 33.6609 85.0654 38.2709C81.2054 42.8809 74.4054 45.2409 68.5154 42.9209C66.1454 41.9909 65.0554 38.6409 65.5354 36.1809L71.6154 4.84094C72.0054 2.81094 77.9954 2.91093 77.6754 4.83093L74.8054 22.0709C76.7654 19.7909 78.8354 17.7309 81.8554 17.4009C84.8754 17.0709 87.8654 18.6109 88.6954 21.7509ZM80.4954 21.6509C74.6854 20.1109 69.0155 38.6409 73.9555 40.0309C80.3055 41.8209 85.7454 23.0409 80.4954 21.6509Z" fill="#80DEEA"/>
<path d="M65.7154 6.07095C64.5354 11.331 59.2755 15.6109 53.1955 14.4709C54.9255 10.0109 58.2455 7.26093 61.5755 4.08093C57.1455 5.55093 54.6655 9.57095 52.2255 13.571C49.9755 8.49095 52.9855 3.83095 58.2855 1.41095C58.3555 1.92095 57.9855 2.43096 57.7655 2.76096C57.5655 3.05096 59.0355 3.66096 59.3455 3.51096C60.2755 2.92096 62.1255 2.64093 62.5155 4.17093C62.6655 4.75093 62.8555 5.98094 63.4755 6.18094C64.0255 6.36094 65.0755 6.25094 65.7255 6.06094L65.7154 6.07095Z" fill="#99E6D0"/>
<path d="M61.8455 36.2709C61.0855 36.1909 60.4555 36.6209 59.9955 37.4709C59.5455 36.7409 59.7154 36.3309 59.0854 36.2109C61.5354 32.9309 62.9355 28.8509 62.8155 24.6109L62.6454 18.1409L52.6055 19.5009C52.6355 19.0809 52.6055 18.6109 52.6655 18.2209C56.7055 18.0309 60.7555 17.9509 64.2655 15.4009C65.5855 22.2109 65.1654 29.8409 61.8354 36.2709H61.8455Z" fill="#9EE8C7"/>
<path d="M43.3055 14.0509C43.1655 13.7309 42.8054 13.4809 42.8654 13.1309L46.7855 12.8809C45.2655 11.1109 43.9955 9.44092 43.7655 6.80092C47.7355 6.35092 51.4155 8.95093 50.8255 13.0609C49.8555 12.3909 49.5255 11.6009 48.8855 10.5009C48.3355 12.4409 49.7254 12.8009 50.5854 14.4609C47.9754 13.5409 45.7855 13.8509 43.3155 14.0309L43.3055 14.0509Z" fill="#95E6D4"/>
<path d="M65.7154 6.07091C65.0654 6.26091 64.0154 6.3709 63.4654 6.19091C62.8454 5.99091 62.6554 4.7609 62.5054 4.1809C62.1154 2.6509 60.2654 2.94089 59.3354 3.52089C59.0154 3.67089 57.5554 3.05089 57.7554 2.77089C57.9754 2.44089 58.3454 1.92089 58.2754 1.42089C60.6654 0.330886 63.2654 -0.16911 65.9254 0.0508904C66.5054 2.42089 66.1254 4.22091 65.7154 6.07091Z" fill="#AFECBD"/>
<path d="M53.2255 29.1409C53.6655 29.6009 54.0955 30.081 54.1755 30.541C54.2655 31.051 53.4955 32.3609 53.6955 32.7509C54.5655 32.9609 55.6655 32.6109 56.1555 32.9109C56.7255 33.2609 56.9455 34.2409 56.6655 34.8609C57.1755 34.4409 57.4355 34.4209 58.1255 34.8709C56.6255 37.4509 53.8155 39.3809 50.5555 39.6909C44.4255 40.2709 39.0155 35.7209 38.1355 29.7809C40.8755 27.9509 43.5455 27.661 46.5855 27.291C46.2355 28.531 45.8555 28.961 45.9455 30.291C48.6155 30.271 50.9255 29.6709 53.2255 29.1409Z" fill="#8CE1E3"/>
<path d="M58.1255 34.881C57.4355 34.431 57.1755 34.451 56.6655 34.871C56.9355 34.251 56.7255 33.271 56.1555 32.921C55.6655 32.621 54.5655 32.961 53.6955 32.761C53.4955 32.371 54.2654 31.061 54.1754 30.551C54.0954 30.091 53.6555 29.611 53.2255 29.151C55.6955 28.581 58.1555 27.561 60.9055 27.681C60.5255 30.661 59.3555 32.781 58.1255 34.891V34.881Z" fill="#A2EBD9"/>
</svg>
